<?xml version="1.0" encoding="UTF-8" standalone="no"?>
<!-- Created with Inkscape (http://www.inkscape.org/) -->

<svg
   xmlns:dc="http://purl.org/dc/elements/1.1/"
   xmlns:cc="http://creativecommons.org/ns#"
   xmlns:rdf="http://www.w3.org/1999/02/22-rdf-syntax-ns#"
   xmlns:svg="http://www.w3.org/2000/svg"
   xmlns="http://www.w3.org/2000/svg"
   xmlns:sodipodi="http://sodipodi.sourceforge.net/DTD/sodipodi-0.dtd"
   xmlns:inkscape="http://www.inkscape.org/namespaces/inkscape"
   width="1052.3622"
   height="744.09448"
   id="svg2"
   version="1.1"
   inkscape:version="0.92.3 (2405546, 2018-03-11)"
   sodipodi:docname="logo_3B.svg">
  <defs
     id="defs4" />
  <sodipodi:namedview
     id="base"
     pagecolor="#ffffff"
     bordercolor="#666666"
     borderopacity="1.0"
     inkscape:pageopacity="0.0"
     inkscape:pageshadow="2"
     inkscape:zoom="1.0845397"
     inkscape:cx="581.04265"
     inkscape:cy="372.04724"
     inkscape:document-units="px"
     inkscape:current-layer="layer1"
     showgrid="true"
     inkscape:snap-grids="false"
     inkscape:window-width="1920"
     inkscape:window-height="1017"
     inkscape:window-x="1912"
     inkscape:window-y="-8"
     inkscape:window-maximized="1">
    <inkscape:grid
       type="xygrid"
       id="grid2987"
       empspacing="5"
       visible="true"
       enabled="true"
       snapvisiblegridlinesonly="true" />
  </sodipodi:namedview>
  <metadata
     id="metadata7">
    <rdf:RDF>
      <cc:Work
         rdf:about="">
        <dc:format>image/svg+xml</dc:format>
        <dc:type
           rdf:resource="http://purl.org/dc/dcmitype/StillImage" />
        <dc:title />
      </cc:Work>
    </rdf:RDF>
  </metadata>
  <g
     inkscape:label="Layer 1"
     inkscape:groupmode="layer"
     id="layer1"
     transform="translate(0,-308.2677)">
    <path
       sodipodi:type="arc"
       style="fill:none;stroke:#000000;stroke-width:1;stroke-miterlimit:4;stroke-opacity:1;stroke-dasharray:none"
       id="path3149"
       sodipodi:cx="672.40143"
       sodipodi:cy="341.34659"
       sodipodi:rx="25.806452"
       sodipodi:ry="10.633214"
       d="m 698.20788,341.34659 a 25.806452,10.633214 0 0 1 -25.80645,10.63321 25.806452,10.633214 0 0 1 -25.80645,-10.63321 25.806452,10.633214 0 0 1 25.80645,-10.63322 25.806452,10.633214 0 0 1 25.80645,10.63322 z"
       transform="matrix(1.135089,0,0,1.2604407,-495.68564,225.53901)" />
    <path
       style="fill:none;stroke:#000000;stroke-width:1;stroke-miterlimit:4;stroke-opacity:1;stroke-dasharray:none"
       d="m 267.79053,653.26691 c -19.46523,0 -36.01603,14.24627 -35.25,31.78125 0.53765,12.30714 22.60456,47.74981 36.70101,47.61383 14.09645,-0.13598 32.79793,-33.29734 33.32109,-46.41909 0.69923,-17.53776 -15.30687,-32.97599 -34.7721,-32.97599 z"
       id="path3920"
       inkscape:connector-curvature="0"
       sodipodi:nodetypes="sszss" />
    <path
       sodipodi:type="arc"
       style="fill:none;stroke:#000000;stroke-width:1;stroke-miterlimit:4;stroke-opacity:1;stroke-dasharray:none"
       id="path3925"
       sodipodi:cx="622.34167"
       sodipodi:cy="380.2952"
       sodipodi:rx="16.129032"
       sodipodi:ry="43.130226"
       d="m 638.47071,380.2952 a 16.129032,43.130226 0 0 1 -16.12904,43.13022 16.129032,43.130226 0 0 1 -16.12903,-43.13022 16.129032,43.130226 0 0 1 16.12903,-43.13023 16.129032,43.130226 0 0 1 16.12904,43.13023 z"
       transform="matrix(0.53209282,0.87056244,-0.94139322,0.49205796,250.6537,-51.384119)" />
    <path
       sodipodi:type="arc"
       style="fill:none;stroke:#000000;stroke-width:1;stroke-miterlimit:4;stroke-opacity:1;stroke-dasharray:none"
       id="path3929"
       sodipodi:cx="596.65472"
       sodipodi:cy="375.03833"
       sodipodi:rx="15.292712"
       sodipodi:ry="29.271206"
       d="m 611.94744,375.03833 a 15.292712,29.271206 0 0 1 -15.29272,29.27121 15.292712,29.271206 0 0 1 -15.29271,-29.27121 15.292712,29.271206 0 0 1 15.29271,-29.27121 15.292712,29.271206 0 0 1 15.29272,29.27121 z"
       transform="matrix(0.73343209,0.76482035,-0.64888086,0.93373704,49.05811,-124.33092)" />
    <path
       transform="matrix(-0.53209282,0.87056244,0.94139322,0.49205796,285.02174,-51.384119)"
       d="m 638.47071,380.2952 a 16.129032,43.130226 0 0 1 -16.12904,43.13022 16.129032,43.130226 0 0 1 -16.12903,-43.13022 16.129032,43.130226 0 0 1 16.12903,-43.13023 16.129032,43.130226 0 0 1 16.12904,43.13023 z"
       sodipodi:ry="43.130226"
       sodipodi:rx="16.129032"
       sodipodi:cy="380.2952"
       sodipodi:cx="622.34167"
       id="path3933"
       style="fill:none;stroke:#000000;stroke-width:1;stroke-miterlimit:4;stroke-opacity:1;stroke-dasharray:none"
       sodipodi:type="arc" />
    <path
       transform="matrix(-0.73343209,0.76482035,0.64888086,0.93373704,486.61733,-124.33092)"
       d="m 611.94744,375.03833 a 15.292712,29.271206 0 0 1 -15.29272,29.27121 15.292712,29.271206 0 0 1 -15.29271,-29.27121 15.292712,29.271206 0 0 1 15.29271,-29.27121 15.292712,29.271206 0 0 1 15.29272,29.27121 z"
       sodipodi:ry="29.271206"
       sodipodi:rx="15.292712"
       sodipodi:cy="375.03833"
       sodipodi:cx="596.65472"
       id="path3935"
       style="fill:none;stroke:#000000;stroke-width:1;stroke-miterlimit:4;stroke-opacity:1;stroke-dasharray:none"
       sodipodi:type="arc" />
    <g
       id="g4034"
       transform="translate(-209.77909,4.4992107)">
      <path
         transform="translate(0,308.2677)"
         id="path4032"
         d="m 499.5625,402.90625 c -0.11576,0.008 -0.22793,0.0229 -0.34375,0.0312 -6.4084,0.4637 -12.92936,0.82101 -19.625,0.96875 -6.69564,0.14774 -13.56566,0.0773 -20.75,-0.3125 -0.34728,-0.0188 -0.71384,-0.0734 -1.0625,-0.0937 6.88594,9.08964 14.79121,16.46795 21.1875,16.40625 6.717,-0.0648 14.30706,-7.70641 20.59375,-17 z"
         style="fill:none;stroke:#000000;stroke-width:1;stroke-miterlimit:4;stroke-opacity:1;stroke-dasharray:none"
         inkscape:connector-curvature="0" />
      <path
         transform="translate(0,308.2677)"
         id="path4027"
         d="m 508.15625,387.53125 c -2.97843,0.25149 -5.92838,0.50102 -8.9375,0.71875 -6.4084,0.4637 -12.92936,0.85226 -19.625,1 -6.69564,0.14774 -13.56566,0.0773 -20.75,-0.3125 -3.50008,-0.18992 -7.06712,-0.45588 -10.71875,-0.8125 1.97968,3.84746 4.12822,7.73855 6.78125,11.59375 0.75859,0.0854 1.5239,0.23826 2.28125,0.3125 3.45258,0.33844 6.88396,0.56539 10.3125,0.6875 3.42854,0.12211 6.84264,0.13103 10.25,0.0625 6.81472,-0.13705 13.59663,-0.62958 20.34375,-1.375 1.4115,-0.15594 2.8096,-0.41662 4.21875,-0.59375 2.25915,-3.75247 4.25355,-7.58162 5.84375,-11.28125 z"
         style="fill:none;stroke:#000000;stroke-width:1;stroke-miterlimit:4;stroke-opacity:1;stroke-dasharray:none"
         inkscape:connector-curvature="0" />
      <path
         transform="translate(0,308.2677)"
         id="path4022"
         d="m 512.21875,372.5 c -4.32272,0.37717 -8.62236,0.77699 -13,1.09375 -6.4084,0.4637 -12.92936,0.82101 -19.625,0.96875 -6.69564,0.14774 -13.56566,0.0773 -20.75,-0.3125 -3.59217,-0.19491 -7.24788,-0.44164 -11,-0.8125 -1.77969,-0.1759 -3.6489,-0.46742 -5.46875,-0.6875 0.21565,2.80022 1.46557,6.68636 3.40625,11.03125 0.33162,0.0576 0.66864,0.13222 1,0.1875 3.47947,0.58048 6.95367,1.03656 10.40625,1.375 3.45258,0.33844 6.88396,0.56539 10.3125,0.6875 3.42854,0.12211 6.84264,0.16228 10.25,0.0937 6.81472,-0.13705 13.59663,-0.62958 20.34375,-1.375 3.97536,-0.43919 7.91681,-1.12507 11.875,-1.71875 1.28764,-3.63885 2.21167,-7.03358 2.3125,-9.5625 0.0131,-0.32969 -0.0589,-0.64241 -0.0625,-0.96875 z"
         style="fill:none;stroke:#000000;stroke-width:1;stroke-miterlimit:4;stroke-opacity:1;stroke-dasharray:none"
         inkscape:connector-curvature="0" />
      <path
         transform="translate(0,308.2677)"
         id="path4017"
         d="m 508.34375,358.1875 c -3.04051,0.25724 -6.05273,0.5277 -9.125,0.75 -6.4084,0.4637 -12.92936,0.82101 -19.625,0.96875 -6.69564,0.14774 -13.56566,0.0773 -20.75,-0.3125 -3.59217,-0.19491 -7.24788,-0.47289 -11,-0.84375 -0.73239,-0.0724 -1.51094,-0.20153 -2.25,-0.28125 -1.65062,3.09219 -2.638,6.44885 -3,10 1.396,0.2737 2.79612,0.61163 4.1875,0.84375 3.47947,0.58048 6.95367,1.03656 10.40625,1.375 3.45258,0.33844 6.88396,0.56539 10.3125,0.6875 3.42854,0.12211 6.84264,0.13103 10.25,0.0625 6.81472,-0.13705 13.59663,-0.62958 20.34375,-1.375 4.61329,-0.50967 9.19057,-1.25558 13.78125,-1.96875 -0.54739,-3.50981 -1.78803,-6.81409 -3.53125,-9.90625 z"
         style="fill:none;stroke:#000000;stroke-width:1;stroke-miterlimit:4;stroke-opacity:1;stroke-dasharray:none"
         inkscape:connector-curvature="0" />
    </g>
    <path
       style="fill:none;stroke:#000000;stroke-width:1px;stroke-linecap:butt;stroke-linejoin:miter;stroke-opacity:1"
       d="m 221.57132,633.44442 c 4.33809,4.46737 5.0325,10.05586 16.96535,12.18638 l 1.19474,-2.15053 c -7.99534,0.53866 -13.31339,-4.27723 -18.16009,-10.03585 z"
       id="path4050"
       inkscape:connector-curvature="0"
       sodipodi:nodetypes="cccc" />
    <path
       style="fill:none;stroke:#000000;stroke-width:1px;stroke-linecap:butt;stroke-linejoin:miter;stroke-opacity:1"
       d="m 233.51875,651.12663 2.86739,1.67264 -20.07169,-0.9558 z"
       id="path4052"
       inkscape:connector-curvature="0"
       sodipodi:nodetypes="cccc" />
    <path
       sodipodi:nodetypes="cccc"
       inkscape:connector-curvature="0"
       id="path4054"
       d="m 314.47454,633.44442 c -4.33809,4.46737 -5.0325,10.05586 -16.96535,12.18638 l -1.19474,-2.15053 c 7.99534,0.53866 13.31339,-4.27723 18.16009,-10.03585 z"
       style="fill:none;stroke:#000000;stroke-width:1px;stroke-linecap:butt;stroke-linejoin:miter;stroke-opacity:1" />
    <path
       sodipodi:nodetypes="cccc"
       inkscape:connector-curvature="0"
       id="path4056"
       d="m 302.52711,651.12663 -2.86739,1.67264 20.07169,-0.9558 z"
       style="fill:none;stroke:#000000;stroke-width:1px;stroke-linecap:butt;stroke-linejoin:miter;stroke-opacity:1" />
    <g
       id="g4073"
       transform="translate(-311.69923,4.4992107)">
      <path
         inkscape:connector-curvature="0"
         id="path4058"
         d="m 578.44007,610.79895 c -8.85578,2.63393 -16.15042,7.2131 -20.375,10.40625 -0.9736,0.73589 -1.9574,1.46075 -2.5625,2 -7.68481,6.84851 -5.3665,12.8268 -1.9375,14.59375 2.12582,1.09543 4.30443,2.00762 6.5,2.8125 13.46991,4.93796 27.86644,4.51721 38.5625,-0.4375 1.54101,-0.71384 3.03386,-1.47552 4.40625,-2.375 8.32754,-5.45793 4.88751,-13.03927 0.71875,-15.78125 -0.66598,-0.43804 -1.33248,-0.80572 -2,-1.21875 -6.85995,-4.2446 -13.89075,-7.26396 -23.3125,-10 z"
         style="fill:none;stroke:#000000;stroke-width:1px;stroke-linecap:butt;stroke-linejoin:miter;stroke-opacity:1" />
      <path
         id="path4045"
         d="m 601.75257,620.79895 c -1.1204,0.59532 -2.18985,1.30308 -3.0625,2.25 -1.01617,1.10265 -1.83795,2.41704 -2.40625,3.875 -0.5683,1.45796 -0.875,3.06741 -0.875,4.75 0,1.68259 0.3067,3.26079 0.875,4.71875 0.55427,1.42196 1.36204,2.69573 2.34375,3.78125 1.54101,-0.71384 3.03386,-1.47552 4.40625,-2.375 8.32754,-5.45793 4.88751,-13.03927 0.71875,-15.78125 -0.66598,-0.43804 -1.33248,-0.80572 -2,-1.21875 z"
         style="fill:none;stroke:#000000;stroke-width:1px;stroke-linecap:butt;stroke-linejoin:miter;stroke-opacity:1"
         inkscape:connector-curvature="0" />
      <path
         id="path4048"
         d="m 560.06507,640.61145 c 0.14638,-0.14304 0.36074,-0.19264 0.5,-0.34375 1.01617,-1.10265 1.83795,-2.41704 2.40625,-3.875 0.5683,-1.45796 0.875,-3.03616 0.875,-4.71875 0,-1.68259 -0.3067,-3.29204 -0.875,-4.75 -0.5683,-1.45796 -1.39008,-2.77235 -2.40625,-3.875 -0.71331,-0.77403 -1.61648,-1.2996 -2.5,-1.84375 -0.9736,0.73589 -1.9574,1.46075 -2.5625,2 -7.68481,6.84851 -5.3665,12.8268 -1.9375,14.59375 2.12582,1.09543 4.30443,2.00762 6.5,2.8125 z"
         style="fill:none;stroke:#000000;stroke-width:1px;stroke-linecap:butt;stroke-linejoin:miter;stroke-opacity:1"
         inkscape:connector-curvature="0" />
    </g>
    <g
       id="g4765"
       inkscape:export-filename="D:\My Documents\hle_documents\Meetings\ACL\ACL2012\Logo 3B portal\logo-135x135.png"
       inkscape:export-xdpi="39.380001"
       inkscape:export-ydpi="39.380001"
       transform="matrix(0.90888008,-0.41705755,0.41705755,0.90888008,191.34015,212.01902)">
      <g
         transform="translate(1.3015993,2.3648396)"
         id="g4679">
        <g
           id="g3972"
           transform="translate(-39.536858,80.116607)">
          <path
             sodipodi:nodetypes="sszss"
             inkscape:connector-curvature="0"
             id="path3174"
             d="m 377.52148,648.7677 c -19.46523,0 -36.01603,14.24627 -35.25,31.78125 0.53765,12.30714 22.60456,47.74981 36.70101,47.61383 14.09645,-0.13598 32.79793,-33.29734 33.32109,-46.41909 0.69923,-17.53776 -15.30687,-32.97599 -34.7721,-32.97599 z"
             style="fill:#ffffff;stroke:#d4aa00;stroke-width:1;stroke-miterlimit:4;stroke-opacity:1;stroke-dasharray:none" />
          <path
             sodipodi:type="arc"
             style="fill:#d4aa00;fill-opacity:1;stroke:#d4aa00;stroke-width:1;stroke-miterlimit:4;stroke-opacity:1;stroke-dasharray:none"
             id="path4092"
             sodipodi:cx="672.40143"
             sodipodi:cy="341.34659"
             sodipodi:rx="25.806452"
             sodipodi:ry="10.633214"
             d="m 698.20788,341.34659 a 25.806452,10.633214 0 0 1 -25.80645,10.63321 25.806452,10.633214 0 0 1 -25.80645,-10.63321 25.806452,10.633214 0 0 1 25.80645,-10.63322 25.806452,10.633214 0 0 1 25.80645,10.63322 z"
             transform="matrix(1.135089,0,0,1.2604407,-385.95468,221.0398)" />
          <path
             style="fill:none;stroke:#d4aa00;stroke-width:1;stroke-miterlimit:4;stroke-opacity:1;stroke-dasharray:none"
             d="m 377.52148,648.7677 c -19.46523,0 -36.01603,14.24627 -35.25,31.78125 0.53765,12.30714 22.60456,47.74981 36.70101,47.61383 14.09645,-0.13598 32.79793,-33.29734 33.32109,-46.41909 0.69923,-17.53776 -15.30687,-32.97599 -34.7721,-32.97599 z"
             id="path4094"
             inkscape:connector-curvature="0"
             sodipodi:nodetypes="sszss" />
          <path
             style="fill:#d4aa00;fill-opacity:1;stroke:none"
             d="m 331.30227,628.94521 c 4.33809,4.46737 5.0325,10.05586 16.96535,12.18638 l 1.19474,-2.15053 c -7.99534,0.53866 -13.31339,-4.27723 -18.16009,-10.03585 z"
             id="path4114"
             inkscape:connector-curvature="0"
             sodipodi:nodetypes="cccc" />
          <path
             style="fill:#d4aa00;fill-opacity:1;stroke:none"
             d="m 343.2497,646.62742 2.86739,1.67264 -20.07169,-0.9558 z"
             id="path4116"
             inkscape:connector-curvature="0"
             sodipodi:nodetypes="cccc" />
          <path
             sodipodi:nodetypes="cccc"
             inkscape:connector-curvature="0"
             id="path4118"
             d="m 424.20549,628.94521 c -4.33809,4.46737 -5.0325,10.05586 -16.96535,12.18638 l -1.19474,-2.15053 c 7.99534,0.53866 13.31339,-4.27723 18.16009,-10.03585 z"
             style="fill:#d4aa00;fill-opacity:1;stroke:none" />
          <path
             sodipodi:nodetypes="cccc"
             inkscape:connector-curvature="0"
             id="path4120"
             d="m 412.25806,646.62742 -2.86739,1.67264 20.07169,-0.9558 z"
             style="fill:#d4aa00;fill-opacity:1;stroke:none" />
          <path
             style="fill:#d4aa00;stroke:#d4aa00;stroke-width:1px;stroke-linecap:butt;stroke-linejoin:miter;stroke-opacity:1"
             d="m 376.47179,610.79895 c -8.85578,2.63393 -16.15042,7.2131 -20.375,10.40625 -0.9736,0.73589 -1.9574,1.46075 -2.5625,2 -7.68481,6.84851 -5.3665,12.8268 -1.9375,14.59375 2.12582,1.09543 4.30443,2.00762 6.5,2.8125 13.46991,4.93796 27.86644,4.51721 38.5625,-0.4375 1.54101,-0.71384 3.03386,-1.47552 4.40625,-2.375 8.32754,-5.45793 4.88751,-13.03927 0.71875,-15.78125 -0.66598,-0.43804 -1.33248,-0.80572 -2,-1.21875 -6.85995,-4.2446 -13.89075,-7.26396 -23.3125,-10 z"
             id="path4124"
             inkscape:connector-curvature="0" />
          <path
             inkscape:connector-curvature="0"
             style="fill:#ffffff;stroke:#d4aa00;stroke-width:1px;stroke-linecap:butt;stroke-linejoin:miter;stroke-opacity:1"
             d="m 399.78429,620.79895 c -1.1204,0.59532 -2.18985,1.30308 -3.0625,2.25 -1.01617,1.10265 -1.83795,2.41704 -2.40625,3.875 -0.5683,1.45796 -0.875,3.06741 -0.875,4.75 0,1.68259 0.3067,3.26079 0.875,4.71875 0.55427,1.42196 1.36204,2.69573 2.34375,3.78125 1.54101,-0.71384 3.03386,-1.47552 4.40625,-2.375 8.32754,-5.45793 4.88751,-13.03927 0.71875,-15.78125 -0.66598,-0.43804 -1.33248,-0.80572 -2,-1.21875 z"
             id="path4126" />
          <path
             inkscape:connector-curvature="0"
             style="fill:#ffffff;stroke:#d4aa00;stroke-width:1px;stroke-linecap:butt;stroke-linejoin:miter;stroke-opacity:1"
             d="m 358.09679,640.61145 c 0.14638,-0.14304 0.36074,-0.19264 0.5,-0.34375 1.01617,-1.10265 1.83795,-2.41704 2.40625,-3.875 0.5683,-1.45796 0.875,-3.03616 0.875,-4.71875 0,-1.68259 -0.3067,-3.29204 -0.875,-4.75 -0.5683,-1.45796 -1.39008,-2.77235 -2.40625,-3.875 -0.71331,-0.77403 -1.61648,-1.2996 -2.5,-1.84375 -0.9736,0.73589 -1.9574,1.46075 -2.5625,2 -7.68481,6.84851 -5.3665,12.8268 -1.9375,14.59375 2.12582,1.09543 4.30443,2.00762 6.5,2.8125 z"
             id="path4128" />
          <g
             style="fill:#d4aa00;fill-opacity:1;stroke:#d4aa00;stroke-opacity:1"
             transform="translate(-100.04814,0)"
             id="g3176">
            <path
               inkscape:connector-curvature="0"
               style="fill:#d4aa00;fill-opacity:1;stroke:#d4aa00;stroke-width:1;stroke-miterlimit:4;stroke-opacity:1;stroke-dasharray:none"
               d="m 499.5625,402.90625 c -0.11576,0.008 -0.22793,0.0229 -0.34375,0.0312 -6.4084,0.4637 -12.92936,0.82101 -19.625,0.96875 -6.69564,0.14774 -13.56566,0.0773 -20.75,-0.3125 -0.34728,-0.0188 -0.71384,-0.0734 -1.0625,-0.0937 6.88594,9.08964 14.79121,16.46795 21.1875,16.40625 6.717,-0.0648 14.30706,-7.70641 20.59375,-17 z"
               id="path3178"
               transform="translate(0,308.2677)" />
            <path
               inkscape:connector-curvature="0"
               style="fill:#d4aa00;fill-opacity:1;stroke:#d4aa00;stroke-width:1;stroke-miterlimit:4;stroke-opacity:1;stroke-dasharray:none"
               d="m 508.15625,387.53125 c -2.97843,0.25149 -5.92838,0.50102 -8.9375,0.71875 -6.4084,0.4637 -12.92936,0.85226 -19.625,1 -6.69564,0.14774 -13.56566,0.0773 -20.75,-0.3125 -3.50008,-0.18992 -7.06712,-0.45588 -10.71875,-0.8125 1.97968,3.84746 4.12822,7.73855 6.78125,11.59375 0.75859,0.0854 1.5239,0.23826 2.28125,0.3125 3.45258,0.33844 6.88396,0.56539 10.3125,0.6875 3.42854,0.12211 6.84264,0.13103 10.25,0.0625 6.81472,-0.13705 13.59663,-0.62958 20.34375,-1.375 1.4115,-0.15594 2.8096,-0.41662 4.21875,-0.59375 2.25915,-3.75247 4.25355,-7.58162 5.84375,-11.28125 z"
               id="path3180"
               transform="translate(0,308.2677)" />
            <path
               inkscape:connector-curvature="0"
               style="fill:#d4aa00;fill-opacity:1;stroke:#d4aa00;stroke-width:1;stroke-miterlimit:4;stroke-opacity:1;stroke-dasharray:none"
               d="m 512.21875,372.5 c -4.32272,0.37717 -8.62236,0.77699 -13,1.09375 -6.4084,0.4637 -12.92936,0.82101 -19.625,0.96875 -6.69564,0.14774 -13.56566,0.0773 -20.75,-0.3125 -3.59217,-0.19491 -7.24788,-0.44164 -11,-0.8125 -1.77969,-0.1759 -3.6489,-0.46742 -5.46875,-0.6875 0.21565,2.80022 1.46557,6.68636 3.40625,11.03125 0.33162,0.0576 0.66864,0.13222 1,0.1875 3.47947,0.58048 6.95367,1.03656 10.40625,1.375 3.45258,0.33844 6.88396,0.56539 10.3125,0.6875 3.42854,0.12211 6.84264,0.16228 10.25,0.0937 6.81472,-0.13705 13.59663,-0.62958 20.34375,-1.375 3.97536,-0.43919 7.91681,-1.12507 11.875,-1.71875 1.28764,-3.63885 2.21167,-7.03358 2.3125,-9.5625 0.0131,-0.32969 -0.0589,-0.64241 -0.0625,-0.96875 z"
               id="path3182"
               transform="translate(0,308.2677)" />
            <path
               inkscape:connector-curvature="0"
               style="fill:#d4aa00;fill-opacity:1;stroke:#d4aa00;stroke-width:1;stroke-miterlimit:4;stroke-opacity:1;stroke-dasharray:none"
               d="m 508.34375,358.1875 c -3.04051,0.25724 -6.05273,0.5277 -9.125,0.75 -6.4084,0.4637 -12.92936,0.82101 -19.625,0.96875 -6.69564,0.14774 -13.56566,0.0773 -20.75,-0.3125 -3.59217,-0.19491 -7.24788,-0.47289 -11,-0.84375 -0.73239,-0.0724 -1.51094,-0.20153 -2.25,-0.28125 -1.65062,3.09219 -2.638,6.44885 -3,10 1.396,0.2737 2.79612,0.61163 4.1875,0.84375 3.47947,0.58048 6.95367,1.03656 10.40625,1.375 3.45258,0.33844 6.88396,0.56539 10.3125,0.6875 3.42854,0.12211 6.84264,0.13103 10.25,0.0625 6.81472,-0.13705 13.59663,-0.62958 20.34375,-1.375 4.61329,-0.50967 9.19057,-1.25558 13.78125,-1.96875 -0.54739,-3.50981 -1.78803,-6.81409 -3.53125,-9.90625 z"
               id="path3184"
               transform="translate(0,308.2677)" />
          </g>
          <path
             sodipodi:type="arc"
             style="fill:#fff6d5;fill-opacity:0.39215686;stroke:#d4aa00;stroke-width:1;stroke-miterlimit:4;stroke-opacity:1;stroke-dasharray:none"
             id="path4098"
             sodipodi:cx="596.65472"
             sodipodi:cy="375.03833"
             sodipodi:rx="15.292712"
             sodipodi:ry="29.271206"
             d="m 611.94744,375.03833 a 15.292712,29.271206 0 0 1 -15.29272,29.27121 15.292712,29.271206 0 0 1 -15.29271,-29.27121 15.292712,29.271206 0 0 1 15.29271,-29.27121 15.292712,29.271206 0 0 1 15.29272,29.27121 z"
             transform="matrix(0.73343209,0.76482035,-0.64888086,0.93373704,158.78906,-128.83013)" />
          <path
             transform="matrix(-0.73343209,0.76482035,0.64888086,0.93373704,596.34828,-128.83013)"
             d="m 611.94744,375.03833 a 15.292712,29.271206 0 0 1 -15.29272,29.27121 15.292712,29.271206 0 0 1 -15.29271,-29.27121 15.292712,29.271206 0 0 1 15.29271,-29.27121 15.292712,29.271206 0 0 1 15.29272,29.27121 z"
             sodipodi:ry="29.271206"
             sodipodi:rx="15.292712"
             sodipodi:cy="375.03833"
             sodipodi:cx="596.65472"
             id="path4102"
             style="fill:#fff6d5;fill-opacity:0.39215686;stroke:#d4aa00;stroke-width:1;stroke-miterlimit:4;stroke-opacity:1;stroke-dasharray:none"
             sodipodi:type="arc" />
          <path
             sodipodi:type="arc"
             style="fill:#fff6d5;fill-opacity:0.39215686;stroke:#d4aa00;stroke-width:1;stroke-miterlimit:4;stroke-opacity:1;stroke-dasharray:none"
             id="path4096"
             sodipodi:cx="622.34167"
             sodipodi:cy="380.2952"
             sodipodi:rx="16.129032"
             sodipodi:ry="43.130226"
             d="m 638.47071,380.2952 a 16.129032,43.130226 0 0 1 -16.12904,43.13022 16.129032,43.130226 0 0 1 -16.12903,-43.13022 16.129032,43.130226 0 0 1 16.12903,-43.13023 16.129032,43.130226 0 0 1 16.12904,43.13023 z"
             transform="matrix(0.53209282,0.87056244,-0.94139322,0.49205796,360.38465,-55.883331)" />
          <path
             transform="matrix(-0.53209282,0.87056244,0.94139322,0.49205796,394.75269,-55.883331)"
             d="m 638.47071,380.2952 a 16.129032,43.130226 0 0 1 -16.12904,43.13022 16.129032,43.130226 0 0 1 -16.12903,-43.13022 16.129032,43.130226 0 0 1 16.12903,-43.13023 16.129032,43.130226 0 0 1 16.12904,43.13023 z"
             sodipodi:ry="43.130226"
             sodipodi:rx="16.129032"
             sodipodi:cy="380.2952"
             sodipodi:cx="622.34167"
             id="path4100"
             style="fill:#fff6d5;fill-opacity:0.39215686;stroke:#d4aa00;stroke-width:1;stroke-miterlimit:4;stroke-opacity:1;stroke-dasharray:none"
             sodipodi:type="arc" />
        </g>
        <g
           transform="matrix(-0.50151074,-0.86515142,0.86515142,-0.50151074,14.693617,1296.6159)"
           id="g4529">
          <path
             style="fill:#ffffff;stroke:#d4aa00;stroke-width:1;stroke-miterlimit:4;stroke-opacity:1;stroke-dasharray:none"
             d="m 377.52148,648.7677 c -19.46523,0 -36.01603,14.24627 -35.25,31.78125 0.53765,12.30714 22.60456,47.74981 36.70101,47.61383 14.09645,-0.13598 32.79793,-33.29734 33.32109,-46.41909 0.69923,-17.53776 -15.30687,-32.97599 -34.7721,-32.97599 z"
             id="path4531"
             inkscape:connector-curvature="0"
             sodipodi:nodetypes="sszss" />
          <path
             transform="matrix(1.135089,0,0,1.2604407,-385.95468,221.0398)"
             d="m 698.20788,341.34659 a 25.806452,10.633214 0 0 1 -25.80645,10.63321 25.806452,10.633214 0 0 1 -25.80645,-10.63321 25.806452,10.633214 0 0 1 25.80645,-10.63322 25.806452,10.633214 0 0 1 25.80645,10.63322 z"
             sodipodi:ry="10.633214"
             sodipodi:rx="25.806452"
             sodipodi:cy="341.34659"
             sodipodi:cx="672.40143"
             id="path4533"
             style="fill:#d4aa00;fill-opacity:1;stroke:#d4aa00;stroke-width:1;stroke-miterlimit:4;stroke-opacity:1;stroke-dasharray:none"
             sodipodi:type="arc" />
          <path
             sodipodi:nodetypes="sszss"
             inkscape:connector-curvature="0"
             id="path4535"
             d="m 377.52148,648.7677 c -19.46523,0 -36.01603,14.24627 -35.25,31.78125 0.53765,12.30714 22.60456,47.74981 36.70101,47.61383 14.09645,-0.13598 32.79793,-33.29734 33.32109,-46.41909 0.69923,-17.53776 -15.30687,-32.97599 -34.7721,-32.97599 z"
             style="fill:none;stroke:#d4aa00;stroke-width:1;stroke-miterlimit:4;stroke-opacity:1;stroke-dasharray:none" />
          <path
             sodipodi:nodetypes="cccc"
             inkscape:connector-curvature="0"
             id="path4537"
             d="m 331.30227,628.94521 c 4.33809,4.46737 5.0325,10.05586 16.96535,12.18638 l 1.19474,-2.15053 c -7.99534,0.53866 -13.31339,-4.27723 -18.16009,-10.03585 z"
             style="fill:#d4aa00;fill-opacity:1;stroke:none" />
          <path
             sodipodi:nodetypes="cccc"
             inkscape:connector-curvature="0"
             id="path4539"
             d="m 343.2497,646.62742 2.86739,1.67264 -20.07169,-0.9558 z"
             style="fill:#d4aa00;fill-opacity:1;stroke:none" />
          <path
             style="fill:#d4aa00;fill-opacity:1;stroke:none"
             d="m 424.20549,628.94521 c -4.33809,4.46737 -5.0325,10.05586 -16.96535,12.18638 l -1.19474,-2.15053 c 7.99534,0.53866 13.31339,-4.27723 18.16009,-10.03585 z"
             id="path4542"
             inkscape:connector-curvature="0"
             sodipodi:nodetypes="cccc" />
          <path
             style="fill:#d4aa00;fill-opacity:1;stroke:none"
             d="m 412.25806,646.62742 -2.86739,1.67264 20.07169,-0.9558 z"
             id="path4544"
             inkscape:connector-curvature="0"
             sodipodi:nodetypes="cccc" />
          <path
             inkscape:connector-curvature="0"
             id="path4546"
             d="m 376.47179,610.79895 c -8.85578,2.63393 -16.15042,7.2131 -20.375,10.40625 -0.9736,0.73589 -1.9574,1.46075 -2.5625,2 -7.68481,6.84851 -5.3665,12.8268 -1.9375,14.59375 2.12582,1.09543 4.30443,2.00762 6.5,2.8125 13.46991,4.93796 27.86644,4.51721 38.5625,-0.4375 1.54101,-0.71384 3.03386,-1.47552 4.40625,-2.375 8.32754,-5.45793 4.88751,-13.03927 0.71875,-15.78125 -0.66598,-0.43804 -1.33248,-0.80572 -2,-1.21875 -6.85995,-4.2446 -13.89075,-7.26396 -23.3125,-10 z"
             style="fill:#d4aa00;stroke:#d4aa00;stroke-width:1px;stroke-linecap:butt;stroke-linejoin:miter;stroke-opacity:1" />
          <path
             id="path4548"
             d="m 399.78429,620.79895 c -1.1204,0.59532 -2.18985,1.30308 -3.0625,2.25 -1.01617,1.10265 -1.83795,2.41704 -2.40625,3.875 -0.5683,1.45796 -0.875,3.06741 -0.875,4.75 0,1.68259 0.3067,3.26079 0.875,4.71875 0.55427,1.42196 1.36204,2.69573 2.34375,3.78125 1.54101,-0.71384 3.03386,-1.47552 4.40625,-2.375 8.32754,-5.45793 4.88751,-13.03927 0.71875,-15.78125 -0.66598,-0.43804 -1.33248,-0.80572 -2,-1.21875 z"
             style="fill:#ffffff;stroke:#d4aa00;stroke-width:1px;stroke-linecap:butt;stroke-linejoin:miter;stroke-opacity:1"
             inkscape:connector-curvature="0" />
          <path
             id="path4550"
             d="m 358.09679,640.61145 c 0.14638,-0.14304 0.36074,-0.19264 0.5,-0.34375 1.01617,-1.10265 1.83795,-2.41704 2.40625,-3.875 0.5683,-1.45796 0.875,-3.03616 0.875,-4.71875 0,-1.68259 -0.3067,-3.29204 -0.875,-4.75 -0.5683,-1.45796 -1.39008,-2.77235 -2.40625,-3.875 -0.71331,-0.77403 -1.61648,-1.2996 -2.5,-1.84375 -0.9736,0.73589 -1.9574,1.46075 -2.5625,2 -7.68481,6.84851 -5.3665,12.8268 -1.9375,14.59375 2.12582,1.09543 4.30443,2.00762 6.5,2.8125 z"
             style="fill:#ffffff;stroke:#d4aa00;stroke-width:1px;stroke-linecap:butt;stroke-linejoin:miter;stroke-opacity:1"
             inkscape:connector-curvature="0" />
          <g
             id="g4552"
             transform="translate(-100.04814,0)"
             style="fill:#d4aa00;fill-opacity:1;stroke:#d4aa00;stroke-opacity:1">
            <path
               transform="translate(0,308.2677)"
               id="path4554"
               d="m 499.5625,402.90625 c -0.11576,0.008 -0.22793,0.0229 -0.34375,0.0312 -6.4084,0.4637 -12.92936,0.82101 -19.625,0.96875 -6.69564,0.14774 -13.56566,0.0773 -20.75,-0.3125 -0.34728,-0.0188 -0.71384,-0.0734 -1.0625,-0.0937 6.88594,9.08964 14.79121,16.46795 21.1875,16.40625 6.717,-0.0648 14.30706,-7.70641 20.59375,-17 z"
               style="fill:#d4aa00;fill-opacity:1;stroke:#d4aa00;stroke-width:1;stroke-miterlimit:4;stroke-opacity:1;stroke-dasharray:none"
               inkscape:connector-curvature="0" />
            <path
               transform="translate(0,308.2677)"
               id="path4556"
               d="m 508.15625,387.53125 c -2.97843,0.25149 -5.92838,0.50102 -8.9375,0.71875 -6.4084,0.4637 -12.92936,0.85226 -19.625,1 -6.69564,0.14774 -13.56566,0.0773 -20.75,-0.3125 -3.50008,-0.18992 -7.06712,-0.45588 -10.71875,-0.8125 1.97968,3.84746 4.12822,7.73855 6.78125,11.59375 0.75859,0.0854 1.5239,0.23826 2.28125,0.3125 3.45258,0.33844 6.88396,0.56539 10.3125,0.6875 3.42854,0.12211 6.84264,0.13103 10.25,0.0625 6.81472,-0.13705 13.59663,-0.62958 20.34375,-1.375 1.4115,-0.15594 2.8096,-0.41662 4.21875,-0.59375 2.25915,-3.75247 4.25355,-7.58162 5.84375,-11.28125 z"
               style="fill:#d4aa00;fill-opacity:1;stroke:#d4aa00;stroke-width:1;stroke-miterlimit:4;stroke-opacity:1;stroke-dasharray:none"
               inkscape:connector-curvature="0" />
            <path
               transform="translate(0,308.2677)"
               id="path4558"
               d="m 512.21875,372.5 c -4.32272,0.37717 -8.62236,0.77699 -13,1.09375 -6.4084,0.4637 -12.92936,0.82101 -19.625,0.96875 -6.69564,0.14774 -13.56566,0.0773 -20.75,-0.3125 -3.59217,-0.19491 -7.24788,-0.44164 -11,-0.8125 -1.77969,-0.1759 -3.6489,-0.46742 -5.46875,-0.6875 0.21565,2.80022 1.46557,6.68636 3.40625,11.03125 0.33162,0.0576 0.66864,0.13222 1,0.1875 3.47947,0.58048 6.95367,1.03656 10.40625,1.375 3.45258,0.33844 6.88396,0.56539 10.3125,0.6875 3.42854,0.12211 6.84264,0.16228 10.25,0.0937 6.81472,-0.13705 13.59663,-0.62958 20.34375,-1.375 3.97536,-0.43919 7.91681,-1.12507 11.875,-1.71875 1.28764,-3.63885 2.21167,-7.03358 2.3125,-9.5625 0.0131,-0.32969 -0.0589,-0.64241 -0.0625,-0.96875 z"
               style="fill:#d4aa00;fill-opacity:1;stroke:#d4aa00;stroke-width:1;stroke-miterlimit:4;stroke-opacity:1;stroke-dasharray:none"
               inkscape:connector-curvature="0" />
            <path
               transform="translate(0,308.2677)"
               id="path4560"
               d="m 508.34375,358.1875 c -3.04051,0.25724 -6.05273,0.5277 -9.125,0.75 -6.4084,0.4637 -12.92936,0.82101 -19.625,0.96875 -6.69564,0.14774 -13.56566,0.0773 -20.75,-0.3125 -3.59217,-0.19491 -7.24788,-0.47289 -11,-0.84375 -0.73239,-0.0724 -1.51094,-0.20153 -2.25,-0.28125 -1.65062,3.09219 -2.638,6.44885 -3,10 1.396,0.2737 2.79612,0.61163 4.1875,0.84375 3.47947,0.58048 6.95367,1.03656 10.40625,1.375 3.45258,0.33844 6.88396,0.56539 10.3125,0.6875 3.42854,0.12211 6.84264,0.13103 10.25,0.0625 6.81472,-0.13705 13.59663,-0.62958 20.34375,-1.375 4.61329,-0.50967 9.19057,-1.25558 13.78125,-1.96875 -0.54739,-3.50981 -1.78803,-6.81409 -3.53125,-9.90625 z"
               style="fill:#d4aa00;fill-opacity:1;stroke:#d4aa00;stroke-width:1;stroke-miterlimit:4;stroke-opacity:1;stroke-dasharray:none"
               inkscape:connector-curvature="0" />
          </g>
          <path
             transform="matrix(0.73343209,0.76482035,-0.64888086,0.93373704,158.78906,-128.83013)"
             d="m 611.94744,375.03833 a 15.292712,29.271206 0 0 1 -15.29272,29.27121 15.292712,29.271206 0 0 1 -15.29271,-29.27121 15.292712,29.271206 0 0 1 15.29271,-29.27121 15.292712,29.271206 0 0 1 15.29272,29.27121 z"
             sodipodi:ry="29.271206"
             sodipodi:rx="15.292712"
             sodipodi:cy="375.03833"
             sodipodi:cx="596.65472"
             id="path4562"
             style="fill:#fff6d5;fill-opacity:0.39215686;stroke:#d4aa00;stroke-width:1;stroke-miterlimit:4;stroke-opacity:1;stroke-dasharray:none"
             sodipodi:type="arc" />
          <path
             sodipodi:type="arc"
             style="fill:#fff6d5;fill-opacity:0.39215686;stroke:#d4aa00;stroke-width:1;stroke-miterlimit:4;stroke-opacity:1;stroke-dasharray:none"
             id="path4564"
             sodipodi:cx="596.65472"
             sodipodi:cy="375.03833"
             sodipodi:rx="15.292712"
             sodipodi:ry="29.271206"
             d="m 611.94744,375.03833 a 15.292712,29.271206 0 0 1 -15.29272,29.27121 15.292712,29.271206 0 0 1 -15.29271,-29.27121 15.292712,29.271206 0 0 1 15.29271,-29.27121 15.292712,29.271206 0 0 1 15.29272,29.27121 z"
             transform="matrix(-0.73343209,0.76482035,0.64888086,0.93373704,596.34828,-128.83013)" />
          <path
             transform="matrix(0.53209282,0.87056244,-0.94139322,0.49205796,360.38465,-55.883331)"
             d="m 638.47071,380.2952 a 16.129032,43.130226 0 0 1 -16.12904,43.13022 16.129032,43.130226 0 0 1 -16.12903,-43.13022 16.129032,43.130226 0 0 1 16.12903,-43.13023 16.129032,43.130226 0 0 1 16.12904,43.13023 z"
             sodipodi:ry="43.130226"
             sodipodi:rx="16.129032"
             sodipodi:cy="380.2952"
             sodipodi:cx="622.34167"
             id="path4566"
             style="fill:#fff6d5;fill-opacity:0.39215686;stroke:#d4aa00;stroke-width:1;stroke-miterlimit:4;stroke-opacity:1;stroke-dasharray:none"
             sodipodi:type="arc" />
          <path
             sodipodi:type="arc"
             style="fill:#fff6d5;fill-opacity:0.39215686;stroke:#d4aa00;stroke-width:1;stroke-miterlimit:4;stroke-opacity:1;stroke-dasharray:none"
             id="path4568"
             sodipodi:cx="622.34167"
             sodipodi:cy="380.2952"
             sodipodi:rx="16.129032"
             sodipodi:ry="43.130226"
             d="m 638.47071,380.2952 a 16.129032,43.130226 0 0 1 -16.12904,43.13022 16.129032,43.130226 0 0 1 -16.12903,-43.13022 16.129032,43.130226 0 0 1 16.12903,-43.13023 16.129032,43.130226 0 0 1 16.12904,43.13023 z"
             transform="matrix(-0.53209282,0.87056244,0.94139322,0.49205796,394.75269,-55.883331)" />
        </g>
        <g
           id="g4574"
           transform="matrix(-0.49697396,0.86776546,-0.86776546,-0.49697396,1039.8471,639.39322)">
          <path
             sodipodi:nodetypes="sszss"
             inkscape:connector-curvature="0"
             id="path4576"
             d="m 377.52148,648.7677 c -19.46523,0 -36.01603,14.24627 -35.25,31.78125 0.53765,12.30714 22.60456,47.74981 36.70101,47.61383 14.09645,-0.13598 32.79793,-33.29734 33.32109,-46.41909 0.69923,-17.53776 -15.30687,-32.97599 -34.7721,-32.97599 z"
             style="fill:#ffffff;stroke:#d4aa00;stroke-width:1;stroke-miterlimit:4;stroke-opacity:1;stroke-dasharray:none" />
          <path
             sodipodi:type="arc"
             style="fill:#d4aa00;fill-opacity:1;stroke:#d4aa00;stroke-width:1;stroke-miterlimit:4;stroke-opacity:1;stroke-dasharray:none"
             id="path4578"
             sodipodi:cx="672.40143"
             sodipodi:cy="341.34659"
             sodipodi:rx="25.806452"
             sodipodi:ry="10.633214"
             d="m 698.20788,341.34659 a 25.806452,10.633214 0 0 1 -25.80645,10.63321 25.806452,10.633214 0 0 1 -25.80645,-10.63321 25.806452,10.633214 0 0 1 25.80645,-10.63322 25.806452,10.633214 0 0 1 25.80645,10.63322 z"
             transform="matrix(1.135089,0,0,1.2604407,-385.95468,221.0398)" />
          <path
             style="fill:none;stroke:#d4aa00;stroke-width:1;stroke-miterlimit:4;stroke-opacity:1;stroke-dasharray:none"
             d="m 377.52148,648.7677 c -19.46523,0 -36.01603,14.24627 -35.25,31.78125 0.53765,12.30714 22.60456,47.74981 36.70101,47.61383 14.09645,-0.13598 32.79793,-33.29734 33.32109,-46.41909 0.69923,-17.53776 -15.30687,-32.97599 -34.7721,-32.97599 z"
             id="path4580"
             inkscape:connector-curvature="0"
             sodipodi:nodetypes="sszss" />
          <path
             style="fill:#d4aa00;fill-opacity:1;stroke:none"
             d="m 331.30227,628.94521 c 4.33809,4.46737 5.0325,10.05586 16.96535,12.18638 l 1.19474,-2.15053 c -7.99534,0.53866 -13.31339,-4.27723 -18.16009,-10.03585 z"
             id="path4582"
             inkscape:connector-curvature="0"
             sodipodi:nodetypes="cccc" />
          <path
             style="fill:#d4aa00;fill-opacity:1;stroke:none"
             d="m 343.2497,646.62742 2.86739,1.67264 -20.07169,-0.9558 z"
             id="path4584"
             inkscape:connector-curvature="0"
             sodipodi:nodetypes="cccc" />
          <path
             sodipodi:nodetypes="cccc"
             inkscape:connector-curvature="0"
             id="path4586"
             d="m 424.20549,628.94521 c -4.33809,4.46737 -5.0325,10.05586 -16.96535,12.18638 l -1.19474,-2.15053 c 7.99534,0.53866 13.31339,-4.27723 18.16009,-10.03585 z"
             style="fill:#d4aa00;fill-opacity:1;stroke:none" />
          <path
             sodipodi:nodetypes="cccc"
             inkscape:connector-curvature="0"
             id="path4588"
             d="m 412.25806,646.62742 -2.86739,1.67264 20.07169,-0.9558 z"
             style="fill:#d4aa00;fill-opacity:1;stroke:none" />
          <path
             style="fill:#d4aa00;stroke:#d4aa00;stroke-width:1px;stroke-linecap:butt;stroke-linejoin:miter;stroke-opacity:1"
             d="m 376.47179,610.79895 c -8.85578,2.63393 -16.15042,7.2131 -20.375,10.40625 -0.9736,0.73589 -1.9574,1.46075 -2.5625,2 -7.68481,6.84851 -5.3665,12.8268 -1.9375,14.59375 2.12582,1.09543 4.30443,2.00762 6.5,2.8125 13.46991,4.93796 27.86644,4.51721 38.5625,-0.4375 1.54101,-0.71384 3.03386,-1.47552 4.40625,-2.375 8.32754,-5.45793 4.88751,-13.03927 0.71875,-15.78125 -0.66598,-0.43804 -1.33248,-0.80572 -2,-1.21875 -6.85995,-4.2446 -13.89075,-7.26396 -23.3125,-10 z"
             id="path4590"
             inkscape:connector-curvature="0" />
          <path
             inkscape:connector-curvature="0"
             style="fill:#ffffff;stroke:#d4aa00;stroke-width:1px;stroke-linecap:butt;stroke-linejoin:miter;stroke-opacity:1"
             d="m 399.78429,620.79895 c -1.1204,0.59532 -2.18985,1.30308 -3.0625,2.25 -1.01617,1.10265 -1.83795,2.41704 -2.40625,3.875 -0.5683,1.45796 -0.875,3.06741 -0.875,4.75 0,1.68259 0.3067,3.26079 0.875,4.71875 0.55427,1.42196 1.36204,2.69573 2.34375,3.78125 1.54101,-0.71384 3.03386,-1.47552 4.40625,-2.375 8.32754,-5.45793 4.88751,-13.03927 0.71875,-15.78125 -0.66598,-0.43804 -1.33248,-0.80572 -2,-1.21875 z"
             id="path4592" />
          <path
             inkscape:connector-curvature="0"
             style="fill:#ffffff;stroke:#d4aa00;stroke-width:1px;stroke-linecap:butt;stroke-linejoin:miter;stroke-opacity:1"
             d="m 358.09679,640.61145 c 0.14638,-0.14304 0.36074,-0.19264 0.5,-0.34375 1.01617,-1.10265 1.83795,-2.41704 2.40625,-3.875 0.5683,-1.45796 0.875,-3.03616 0.875,-4.71875 0,-1.68259 -0.3067,-3.29204 -0.875,-4.75 -0.5683,-1.45796 -1.39008,-2.77235 -2.40625,-3.875 -0.71331,-0.77403 -1.61648,-1.2996 -2.5,-1.84375 -0.9736,0.73589 -1.9574,1.46075 -2.5625,2 -7.68481,6.84851 -5.3665,12.8268 -1.9375,14.59375 2.12582,1.09543 4.30443,2.00762 6.5,2.8125 z"
             id="path4594" />
          <g
             style="fill:#d4aa00;fill-opacity:1;stroke:#d4aa00;stroke-opacity:1"
             transform="translate(-100.04814,0)"
             id="g4596">
            <path
               inkscape:connector-curvature="0"
               style="fill:#d4aa00;fill-opacity:1;stroke:#d4aa00;stroke-width:1;stroke-miterlimit:4;stroke-opacity:1;stroke-dasharray:none"
               d="m 499.5625,402.90625 c -0.11576,0.008 -0.22793,0.0229 -0.34375,0.0312 -6.4084,0.4637 -12.92936,0.82101 -19.625,0.96875 -6.69564,0.14774 -13.56566,0.0773 -20.75,-0.3125 -0.34728,-0.0188 -0.71384,-0.0734 -1.0625,-0.0937 6.88594,9.08964 14.79121,16.46795 21.1875,16.40625 6.717,-0.0648 14.30706,-7.70641 20.59375,-17 z"
               id="path4598"
               transform="translate(0,308.2677)" />
            <path
               inkscape:connector-curvature="0"
               style="fill:#d4aa00;fill-opacity:1;stroke:#d4aa00;stroke-width:1;stroke-miterlimit:4;stroke-opacity:1;stroke-dasharray:none"
               d="m 508.15625,387.53125 c -2.97843,0.25149 -5.92838,0.50102 -8.9375,0.71875 -6.4084,0.4637 -12.92936,0.85226 -19.625,1 -6.69564,0.14774 -13.56566,0.0773 -20.75,-0.3125 -3.50008,-0.18992 -7.06712,-0.45588 -10.71875,-0.8125 1.97968,3.84746 4.12822,7.73855 6.78125,11.59375 0.75859,0.0854 1.5239,0.23826 2.28125,0.3125 3.45258,0.33844 6.88396,0.56539 10.3125,0.6875 3.42854,0.12211 6.84264,0.13103 10.25,0.0625 6.81472,-0.13705 13.59663,-0.62958 20.34375,-1.375 1.4115,-0.15594 2.8096,-0.41662 4.21875,-0.59375 2.25915,-3.75247 4.25355,-7.58162 5.84375,-11.28125 z"
               id="path4600"
               transform="translate(0,308.2677)" />
            <path
               inkscape:connector-curvature="0"
               style="fill:#d4aa00;fill-opacity:1;stroke:#d4aa00;stroke-width:1;stroke-miterlimit:4;stroke-opacity:1;stroke-dasharray:none"
               d="m 512.21875,372.5 c -4.32272,0.37717 -8.62236,0.77699 -13,1.09375 -6.4084,0.4637 -12.92936,0.82101 -19.625,0.96875 -6.69564,0.14774 -13.56566,0.0773 -20.75,-0.3125 -3.59217,-0.19491 -7.24788,-0.44164 -11,-0.8125 -1.77969,-0.1759 -3.6489,-0.46742 -5.46875,-0.6875 0.21565,2.80022 1.46557,6.68636 3.40625,11.03125 0.33162,0.0576 0.66864,0.13222 1,0.1875 3.47947,0.58048 6.95367,1.03656 10.40625,1.375 3.45258,0.33844 6.88396,0.56539 10.3125,0.6875 3.42854,0.12211 6.84264,0.16228 10.25,0.0937 6.81472,-0.13705 13.59663,-0.62958 20.34375,-1.375 3.97536,-0.43919 7.91681,-1.12507 11.875,-1.71875 1.28764,-3.63885 2.21167,-7.03358 2.3125,-9.5625 0.0131,-0.32969 -0.0589,-0.64241 -0.0625,-0.96875 z"
               id="path4602"
               transform="translate(0,308.2677)" />
            <path
               inkscape:connector-curvature="0"
               style="fill:#d4aa00;fill-opacity:1;stroke:#d4aa00;stroke-width:1;stroke-miterlimit:4;stroke-opacity:1;stroke-dasharray:none"
               d="m 508.34375,358.1875 c -3.04051,0.25724 -6.05273,0.5277 -9.125,0.75 -6.4084,0.4637 -12.92936,0.82101 -19.625,0.96875 -6.69564,0.14774 -13.56566,0.0773 -20.75,-0.3125 -3.59217,-0.19491 -7.24788,-0.47289 -11,-0.84375 -0.73239,-0.0724 -1.51094,-0.20153 -2.25,-0.28125 -1.65062,3.09219 -2.638,6.44885 -3,10 1.396,0.2737 2.79612,0.61163 4.1875,0.84375 3.47947,0.58048 6.95367,1.03656 10.40625,1.375 3.45258,0.33844 6.88396,0.56539 10.3125,0.6875 3.42854,0.12211 6.84264,0.13103 10.25,0.0625 6.81472,-0.13705 13.59663,-0.62958 20.34375,-1.375 4.61329,-0.50967 9.19057,-1.25558 13.78125,-1.96875 -0.54739,-3.50981 -1.78803,-6.81409 -3.53125,-9.90625 z"
               id="path4604"
               transform="translate(0,308.2677)" />
          </g>
          <path
             sodipodi:type="arc"
             style="fill:#fff6d5;fill-opacity:0.39215686;stroke:#d4aa00;stroke-width:1;stroke-miterlimit:4;stroke-opacity:1;stroke-dasharray:none"
             id="path4606"
             sodipodi:cx="596.65472"
             sodipodi:cy="375.03833"
             sodipodi:rx="15.292712"
             sodipodi:ry="29.271206"
             d="m 611.94744,375.03833 a 15.292712,29.271206 0 0 1 -15.29272,29.27121 15.292712,29.271206 0 0 1 -15.29271,-29.27121 15.292712,29.271206 0 0 1 15.29271,-29.27121 15.292712,29.271206 0 0 1 15.29272,29.27121 z"
             transform="matrix(0.73343209,0.76482035,-0.64888086,0.93373704,158.78906,-128.83013)" />
          <path
             transform="matrix(-0.73343209,0.76482035,0.64888086,0.93373704,596.34828,-128.83013)"
             d="m 611.94744,375.03833 a 15.292712,29.271206 0 0 1 -15.29272,29.27121 15.292712,29.271206 0 0 1 -15.29271,-29.27121 15.292712,29.271206 0 0 1 15.29271,-29.27121 15.292712,29.271206 0 0 1 15.29272,29.27121 z"
             sodipodi:ry="29.271206"
             sodipodi:rx="15.292712"
             sodipodi:cy="375.03833"
             sodipodi:cx="596.65472"
             id="path4608"
             style="fill:#fff6d5;fill-opacity:0.39215686;stroke:#d4aa00;stroke-width:1;stroke-miterlimit:4;stroke-opacity:1;stroke-dasharray:none"
             sodipodi:type="arc" />
          <path
             sodipodi:type="arc"
             style="fill:#fff6d5;fill-opacity:0.39215686;stroke:#d4aa00;stroke-width:1;stroke-miterlimit:4;stroke-opacity:1;stroke-dasharray:none"
             id="path4610"
             sodipodi:cx="622.34167"
             sodipodi:cy="380.2952"
             sodipodi:rx="16.129032"
             sodipodi:ry="43.130226"
             d="m 638.47071,380.2952 a 16.129032,43.130226 0 0 1 -16.12904,43.13022 16.129032,43.130226 0 0 1 -16.12903,-43.13022 16.129032,43.130226 0 0 1 16.12903,-43.13023 16.129032,43.130226 0 0 1 16.12904,43.13023 z"
             transform="matrix(0.53209282,0.87056244,-0.94139322,0.49205796,360.38465,-55.883331)" />
          <path
             transform="matrix(-0.53209282,0.87056244,0.94139322,0.49205796,394.75269,-55.883331)"
             d="m 638.47071,380.2952 a 16.129032,43.130226 0 0 1 -16.12904,43.13022 16.129032,43.130226 0 0 1 -16.12903,-43.13022 16.129032,43.130226 0 0 1 16.12903,-43.13023 16.129032,43.130226 0 0 1 16.12904,43.13023 z"
             sodipodi:ry="43.130226"
             sodipodi:rx="16.129032"
             sodipodi:cy="380.2952"
             sodipodi:cx="622.34167"
             id="path4612"
             style="fill:#fff6d5;fill-opacity:0.39215686;stroke:#d4aa00;stroke-width:1;stroke-miterlimit:4;stroke-opacity:1;stroke-dasharray:none"
             sodipodi:type="arc" />
        </g>
      </g>
      <path
         transform="matrix(0.9819953,0,0,1.1596897,3.4517564,253.985)"
         d="M 494.26314,361.12238 A 152.20686,128.88484 0 0 1 342.05627,490.00722 152.20686,128.88484 0 0 1 189.84941,361.12238 152.20686,128.88484 0 0 1 342.05627,232.23753 152.20686,128.88484 0 0 1 494.26314,361.12238 Z"
         sodipodi:ry="128.88484"
         sodipodi:rx="152.20686"
         sodipodi:cy="361.12238"
         sodipodi:cx="342.05627"
         id="path4741"
         style="fill:none;stroke:#d4aa00;stroke-width:9.37075138;stroke-miterlimit:4;stroke-opacity:1;stroke-dasharray:none"
         sodipodi:type="arc" />
    </g>
    <g
       id="g4187">
      <rect
         y="852.37738"
         x="149.37213"
         height="19.363054"
         width="19.363054"
         id="rect3242"
         style="fill:#aa8800;stroke:none" />
      <rect
         style="fill:#aa8800;stroke:none"
         id="rect3244"
         width="20"
         height="20"
         x="149.37213"
         y="852.0589" />
      <text
         id="text4018"
         y="866.29816"
         x="177.95567"
         style="font-style:normal;font-weight:normal;line-height:0%;font-family:sans-serif;letter-spacing:0px;word-spacing:0px;fill:#000000;fill-opacity:1;stroke:none"
         xml:space="preserve"><tspan
           style="font-size:12px;line-height:1.25;font-family:sans-serif"
           y="866.29816"
           x="177.95567"
           id="tspan4020"
           sodipodi:role="line">aa8800</tspan></text>
    </g>
    <g
       id="g4193">
      <rect
         style="fill:#aa8800;stroke:none"
         id="rect4022"
         width="19.363054"
         height="19.363054"
         x="149.37213"
         y="878.37738" />
      <rect
         y="878.0589"
         x="149.37213"
         height="20"
         width="20"
         id="rect4024"
         style="fill:#d4aa00;stroke:none" />
      <text
         xml:space="preserve"
         style="font-style:normal;font-weight:normal;line-height:0%;font-family:sans-serif;letter-spacing:0px;word-spacing:0px;fill:#000000;fill-opacity:1;stroke:none"
         x="177.95567"
         y="892.29816"
         id="text4026"><tspan
           sodipodi:role="line"
           id="tspan4028"
           x="177.95567"
           y="892.29816"
           style="font-size:12px;line-height:1.25;font-family:sans-serif">d4aa00</tspan></text>
    </g>
    <g
       id="g3864">
      <rect
         y="904.0589"
         x="149.37213"
         height="20"
         width="20"
         id="rect4040"
         style="fill:#ffcc00;fill-opacity:1;stroke:none" />
      <text
         xml:space="preserve"
         style="font-style:normal;font-weight:normal;line-height:0%;font-family:sans-serif;letter-spacing:0px;word-spacing:0px;fill:#000000;fill-opacity:1;stroke:none"
         x="177.95567"
         y="918.35382"
         id="text4042"><tspan
           sodipodi:role="line"
           id="tspan4044"
           x="177.95567"
           y="918.35382"
           style="font-size:12px;line-height:1.25;font-family:sans-serif">ffcc00</tspan></text>
    </g>
  </g>
</svg>
